<?xml version="1.0" encoding="UTF-8"?><svg id="Capa_1" xmlns="http://www.w3.org/2000/svg" viewBox="0 0 301 301"><defs><style>.cls-1,.cls-2,.cls-3{stroke-width:0px;}.cls-2{fill:#e9e9e9;}.cls-3{fill:#fff;}</style></defs><path class="cls-3" d="m301,301H0C0,200.6,0,100.3,0,0c100.3,0,200.6,0,301,0,0,100.3,0,200.6,0,301Zm-.5-150.5c0-35,0-70,0-105,0-3.1-.3-6.3-1-9.4C295.4,15.6,276.8.5,256.1.5c-70.2,0-140.4,0-210.6,0-3.3,0-6.6.3-9.9,1C15.5,5.7.5,24.3.5,44.8c0,70.3,0,140.5,0,210.8,0,3,.3,6.1,1,9.1,4.3,20.6,22.7,35.5,43.7,35.5,70,0,140,0,210,0,6.1,0,11.9-1.1,17.5-3.3,16.3-6.5,27.8-23.3,27.8-40.8,0-35.2,0-70.4,0-105.6Z"/><path class="cls-1" d="m300.5,150.4c0,35.2,0,70.4,0,105.6,0,17.5-11.5,34.3-27.8,40.8-5.6,2.3-11.5,3.3-17.5,3.3-70,0-140,0-210,0-21,0-39.5-14.9-43.7-35.5-.6-3-1-6.1-1-9.1,0-70.3,0-140.5,0-210.8,0-20.5,15-39.1,35.1-43.3,3.2-.7,6.6-1,9.9-1,70.2,0,140.4,0,210.6,0,20.8,0,39.3,15.2,43.4,35.5.6,3.1,1,6.2,1,9.4,0,35,0,70,0,105ZM151.4,29c-.5.4-.9.8-1.3,1.2-2.9,3.1-5.9,6.1-8.8,9.2-4.2,4.4-8.5,8.8-12.7,13.2-7.1,7.3-14.3,14.7-21.4,22-4.3,4.4-8.5,8.8-12.8,13.2-5,5.2-10,10.3-15,15.5-4.2,4.4-8.4,8.7-12.7,13.1-7.1,7.3-14.2,14.7-21.4,22-4.2,4.3-8.3,8.5-12.5,12.7-.8.8-.8,1.4,0,2.2,2.1,2.1,4.2,4.3,6.4,6.5,3.5,3.7,7,7.3,10.5,11,5.7,6,11.5,11.9,17.2,17.9,3.3,3.4,6.6,6.8,9.9,10.3,6.4,6.6,12.7,13.2,19.1,19.8,4.5,4.6,8.9,9.3,13.3,14,5.8,6.1,11.7,12.1,17.5,18.2,2.9,3,5.7,5.9,8.6,8.9,2.2,2.2,4.3,4.5,6.4,6.8,2.7,2.8,5.3,5.5,8,8.3.7.8,1.4.7,2,0,.4-.5.8-.9,1.2-1.4,5.3-5.6,10.5-11.1,15.8-16.7,5.5-5.8,10.9-11.5,16.4-17.3,3.8-4.1,7.7-8.1,11.5-12.2,5.4-5.7,10.9-11.5,16.3-17.2,5.3-5.6,10.6-11.2,15.9-16.8,4.1-4.3,8.1-8.6,12.2-12.9,4-4.2,8-8.4,12-12.6,4.6-4.8,9.2-9.6,13.8-14.4.8-.8.8-1.4,0-2.2-5.4-5.7-10.7-11.4-16-17-4.7-5-9.5-10.1-14.2-15.1-4.8-5.1-9.7-10.3-14.5-15.4-8.4-9-16.9-17.9-25.3-26.9-4.9-5.2-9.8-10.4-14.7-15.6-4.3-4.6-8.7-9.1-13-13.7-1.4-1.5-2.8-3-4.2-4.5-4.1-4.4-8.2-8.8-12.4-13.2-.3-.3-.6-.4-1.1-.8Z"/><path class="cls-2" d="m151.4,29c.5.3.8.5,1.1.8,4.1,4.4,8.2,8.8,12.4,13.2,1.4,1.5,2.8,3,4.2,4.5,4.3,4.6,8.7,9.1,13,13.7,4.9,5.2,9.8,10.4,14.7,15.6,8.4,8.9,16.9,17.9,25.3,26.9,4.8,5.1,9.7,10.3,14.5,15.4,4.7,5,9.5,10.1,14.2,15.1,5.3,5.7,10.6,11.4,16,17,.8.8.7,1.4,0,2.2-4.6,4.8-9.2,9.6-13.8,14.4-4,4.2-8,8.4-12,12.6-4.1,4.3-8.1,8.6-12.2,12.9-5.3,5.6-10.6,11.2-15.9,16.8-5.4,5.7-10.9,11.5-16.3,17.2-3.8,4.1-7.7,8.1-11.5,12.2-5.5,5.8-10.9,11.5-16.4,17.3-5.3,5.6-10.5,11.1-15.8,16.7-.4.4-.8.9-1.2,1.4-.6.8-1.3.8-2,0-2.7-2.8-5.3-5.5-8-8.3-2.2-2.2-4.3-4.5-6.4-6.8-2.9-3-5.7-5.9-8.6-8.9-5.9-6.1-11.7-12.1-17.5-18.2-4.5-4.6-8.9-9.3-13.3-14-6.3-6.6-12.7-13.2-19.1-19.8-3.3-3.4-6.6-6.8-9.9-10.3-5.7-6-11.5-11.9-17.2-17.9-3.5-3.7-7-7.3-10.5-11-2.1-2.2-4.2-4.4-6.4-6.5-.8-.8-.8-1.4,0-2.2,4.2-4.2,8.4-8.5,12.5-12.7,7.1-7.3,14.2-14.7,21.4-22,4.2-4.4,8.4-8.7,12.7-13.1,5-5.2,10-10.3,15-15.5,4.3-4.4,8.5-8.8,12.8-13.2,7.1-7.3,14.3-14.7,21.4-22,4.3-4.4,8.5-8.8,12.7-13.2,2.9-3.1,5.9-6.1,8.8-9.2.4-.4.9-.8,1.3-1.2Zm49.2,111.8c0-1.4.1-2.8,0-4.2-.6-5.3-1.6-10.6-3.6-15.6-.5-1.3-.9-2.8-2.4-3.4-3.5-1.2-6.9-2.6-10.5-3.6-6.2-1.7-12.5-3.3-18.8-4.8-3.2-.7-6.4-1.2-9.7-1.4-4.3-.3-8.6-.3-12.9-.1-3,.1-6.1.5-9,1.1-4.5.9-9,2.1-13.5,3.3-3.7,1-7.2,2.3-10.8,3.5-.5.2-1,.6-1.2,1-1.1,2.5-2.4,5.1-3.2,7.7-2.1,6.8-2.9,13.8-2.3,20.9.5,6.6,2.2,12.8,5,18.7,2.4,5.1,5.7,9.7,9.7,13.8,5.4,5.6,11.7,9.7,19.1,12.2,6.8,2.3,13.8,3,20.9,2.2,4.9-.6,9.5-1.9,14-4,6.1-2.8,11.4-6.8,16-11.8,5.6-6.2,9.4-13.3,11.6-21.3,1.3-4.6,2.1-9.4,1.9-14.3Zm-99.4,45.5c0-.1.2-.3.3-.4-.4-.5-.8-1-1.2-1.5-3-3.5-5.6-7.2-7.8-11.3-2.6-4.8-4.6-9.8-5.9-15.1-1.2-4.9-1.9-9.8-2-14.8-.2-5.8.6-11.5,2-17.1,0-.3,0-.6,0-.9-.3,0-.6,0-.9,0-4.8,2.4-9.7,4.7-14.5,7.2-3.5,1.8-6.9,3.7-10.3,5.6-3.9,2.2-7.8,4.4-11.7,6.6-3.8,2.3-7.6,4.6-11.3,6.9-1.1.7-1.2,1.3,0,2,3.8,2.3,7.6,4.7,11.5,7,3,1.8,6.1,3.6,9.2,5.3,3.6,2,7.2,3.9,10.9,5.7,4.5,2.3,9,4.6,13.6,6.8,4.5,2.1,9.2,4.1,13.8,6.1,1.5.6,3,1.1,4.5,1.7Zm162.1-34.2c-.7-.5-1.2-.9-1.7-1.2-3.5-2.1-7-4.2-10.5-6.2-5.2-2.9-10.4-5.7-15.7-8.5-3.2-1.7-6.5-3.4-9.8-5-2.5-1.2-4.9-2.4-7.4-3.6-.3-.1-.8-.2-1.1,0-.2,0-.2.6-.2,1,.2,1.3.4,2.7.7,4,1,5.3,1,10.6.4,15.9-.6,5.8-1.9,11.5-4,16.9-2.2,5.6-5,10.9-8.7,15.7-.2.2-.2.6-.3,1,.4,0,.8.1,1.1,0,1.1-.5,2.2-1,3.3-1.5,3.6-1.6,7.3-3.2,10.9-4.9,4.1-1.9,8.1-4,12.1-6,4.1-2.1,8.2-4.2,12.3-6.5,4.6-2.5,9.2-5.2,13.7-7.9,1.6-.9,3.2-2,5-3.1Z"/><path class="cls-1" d="m200.6,140.9c.2,4.9-.5,9.7-1.9,14.3-2.2,7.9-6,15.1-11.6,21.3-4.5,5-9.8,9-16,11.8-4.4,2.1-9.1,3.4-14,4-7.2.9-14.1.2-20.9-2.2-7.3-2.5-13.6-6.7-19.1-12.2-4-4.1-7.2-8.6-9.7-13.8-2.8-5.9-4.5-12.1-5-18.7-.6-7.2.1-14.1,2.3-20.9.8-2.7,2.1-5.2,3.2-7.7.2-.4.7-.9,1.2-1,3.6-1.2,7.2-2.5,10.8-3.5,4.5-1.2,8.9-2.4,13.5-3.3,3-.6,6-1,9-1.1,4.3-.2,8.6-.1,12.9.1,3.3.2,6.5.7,9.7,1.4,6.3,1.5,12.6,3,18.8,4.8,3.6,1,7,2.4,10.5,3.6,1.6.6,1.9,2.1,2.4,3.4,2,5,3,10.3,3.6,15.6.2,1.4,0,2.8,0,4.2Zm-26.1,1.8c0-6.1-2-11.7-6.2-16.4-3.1-3.5-6.9-5.8-11.5-6.8-3.2-.7-6.3-.7-9.5,0-4.3,1-8,3-11,6.2-3.7,3.9-5.9,8.6-6.5,14.1-.6,5,0,9.8,2.3,14.2,3.1,6.2,7.8,10.5,14.7,12.2,8,2,15-.1,20.8-5.9,4.7-4.7,7-10.6,7-17.6Z"/><path class="cls-1" d="m101.3,186.4c-1.5-.6-3.1-1.1-4.5-1.7-4.6-2-9.2-4-13.8-6.1-4.6-2.2-9.1-4.5-13.6-6.8-3.7-1.9-7.3-3.8-10.9-5.7-3.1-1.7-6.2-3.5-9.2-5.3-3.8-2.3-7.6-4.6-11.5-7-1.1-.7-1.1-1.3,0-2,3.8-2.3,7.5-4.7,11.3-6.9,3.8-2.3,7.8-4.5,11.7-6.6,3.4-1.9,6.8-3.8,10.3-5.6,4.8-2.4,9.7-4.8,14.5-7.2.2-.1.6,0,.9,0,0,.3,0,.6,0,.9-1.3,5.6-2.1,11.3-2,17.1.1,5,.8,9.9,2,14.8,1.4,5.3,3.4,10.3,5.9,15.1,2.2,4.1,4.8,7.8,7.8,11.3.4.5.8,1,1.2,1.5,0,.1-.2.3-.3.4Z"/><path class="cls-1" d="m263.4,152.1c-1.8,1.1-3.4,2.1-5,3.1-4.6,2.6-9.1,5.3-13.7,7.9-4.1,2.2-8.2,4.4-12.3,6.5-4,2.1-8,4.1-12.1,6-3.6,1.7-7.3,3.3-10.9,4.9-1.1.5-2.2,1-3.3,1.5-.3.1-.7,0-1.1,0,0-.3.1-.7.3-1,3.7-4.8,6.5-10,8.7-15.7,2.1-5.5,3.4-11.1,4-16.9.5-5.3.5-10.6-.4-15.9-.2-1.3-.5-2.7-.7-4,0-.3,0-.9.2-1,.3-.1.8-.1,1.1,0,2.5,1.2,5,2.3,7.4,3.6,3.3,1.6,6.6,3.3,9.8,5,5.2,2.8,10.5,5.6,15.7,8.5,3.6,2,7,4.1,10.5,6.2.5.3,1,.7,1.7,1.2Z"/><path class="cls-2" d="m174.5,142.6c0,7-2.3,12.9-7,17.6-5.7,5.7-12.7,7.9-20.8,5.9-6.9-1.7-11.6-6-14.7-12.2-2.2-4.4-2.9-9.2-2.3-14.2.6-5.5,2.8-10.1,6.5-14.1,3-3.2,6.7-5.2,11-6.2,3.2-.7,6.3-.7,9.5,0,4.6,1,8.4,3.3,11.5,6.8,4.2,4.7,6.2,10.3,6.2,16.4Z"/></svg>