<?xml version="1.0" encoding="utf-8"?>
<!-- Generator: Adobe Illustrator 28.0.0, SVG Export Plug-In . SVG Version: 6.00 Build 0)  -->
<svg version="1.1" id="Capa_1" xmlns="http://www.w3.org/2000/svg" xmlns:xlink="http://www.w3.org/1999/xlink" x="0px" y="0px"
	 viewBox="0 0 301 301" style="enable-background:new 0 0 301 301;" xml:space="preserve">
<style type="text/css">
	.st0{fill:#FFFFFF;}
	.st1{fill:#B7A9B1;}
</style>
<g>
	<path class="st0" d="M301,301c-100.3,0-200.6,0-301,0C0,200.6,0,100.3,0,0c100.3,0,200.6,0,301,0C301,100.3,301,200.6,301,301z
		 M300.5,150.4c0-35,0-70,0-105c0-3.1-0.3-6.3-1-9.4c-4.1-20.4-22.7-35.5-43.4-35.5c-70.2,0-140.4,0-210.6,0c-3.3,0-6.6,0.3-9.9,1
		C15.5,5.7,0.5,24.3,0.5,44.8c0,70.3,0,140.5,0,210.8c0,3,0.3,6.1,1,9.1c4.3,20.6,22.7,35.5,43.7,35.5c70,0,140,0,210,0
		c6.1,0,11.9-1.1,17.5-3.3c16.3-6.5,27.8-23.3,27.8-40.8C300.5,220.9,300.5,185.6,300.5,150.4z"/>
	<path d="M305,147.6c0,35.9,0,71.8,0,107.7c0,17.8-11.7,35-28.2,41.6c-5.7,2.3-11.7,3.4-17.8,3.4c-71.2,0-142.3,0-213.5,0
		C24.1,300.2,5.3,285,1,264.1c-0.6-3-1-6.2-1-9.3C0,183.1,0,111.5,0,39.9C0,19,15.3,0.1,35.7-4.2c3.3-0.7,6.7-1,10-1
		c71.4-0.1,142.7,0,214.1,0c21.1,0,40,15.4,44.1,36.2c0.6,3.1,1,6.4,1,9.5C305,76.2,305,111.9,305,147.6z M153.4,23.8
		c-0.5,0.4-1,0.8-1.4,1.2c-3,3.1-6,6.2-8.9,9.3c-4.3,4.5-8.6,9-13,13.4c-7.2,7.5-14.5,15-21.7,22.4c-4.3,4.5-8.6,9-13,13.4
		C90.4,89,85.3,94.3,80.2,99.5c-4.3,4.4-8.6,8.9-12.9,13.3c-7.2,7.5-14.5,15-21.7,22.4c-4.2,4.4-8.5,8.7-12.7,13
		c-0.8,0.8-0.8,1.4,0,2.3c2.2,2.2,4.3,4.4,6.5,6.7c3.6,3.7,7.1,7.5,10.7,11.2c5.8,6.1,11.6,12.1,17.5,18.2c3.4,3.5,6.7,7,10.1,10.5
		c6.5,6.7,12.9,13.4,19.4,20.1c4.5,4.7,9,9.5,13.5,14.2c5.9,6.2,11.9,12.4,17.8,18.6c2.9,3,5.8,6,8.7,9c2.2,2.3,4.3,4.6,6.5,6.9
		c2.7,2.8,5.4,5.6,8.1,8.4c0.7,0.8,1.4,0.7,2-0.1c0.4-0.5,0.8-1,1.2-1.4c5.4-5.7,10.7-11.4,16.1-17c5.6-5.9,11.1-11.8,16.7-17.6
		c3.9-4.1,7.8-8.3,11.7-12.4c5.5-5.8,11.1-11.7,16.6-17.5c5.4-5.7,10.8-11.4,16.2-17.1c4.1-4.4,8.3-8.7,12.4-13.1
		c4.1-4.3,8.1-8.6,12.2-12.9c4.7-4.9,9.3-9.8,14-14.6c0.8-0.8,0.9-1.4,0.1-2.2c-5.4-5.8-10.8-11.6-16.3-17.4
		c-4.8-5.1-9.6-10.3-14.4-15.4c-4.9-5.2-9.9-10.5-14.8-15.7c-8.6-9.1-17.2-18.2-25.7-27.4c-5-5.3-10-10.6-15-15.9
		c-4.4-4.7-8.8-9.3-13.3-14c-1.4-1.5-2.8-3-4.3-4.5c-4.2-4.5-8.4-9-12.6-13.5C154.3,24.3,153.9,24.2,153.4,23.8z M93,301H0V-5.2h93
		V301z M305,301H0V-6h305V301z"/>
	<path class="st1" d="M151.4,29c0.5,0.3,0.8,0.5,1.1,0.8c4.1,4.4,8.2,8.8,12.4,13.2c1.4,1.5,2.8,3,4.2,4.5c4.3,4.6,8.7,9.1,13,13.7
		c4.9,5.2,9.8,10.4,14.7,15.6c8.4,8.9,16.9,17.9,25.3,26.9c4.8,5.1,9.7,10.3,14.5,15.4c4.7,5,9.5,10.1,14.2,15.1
		c5.3,5.7,10.6,11.4,16,17c0.8,0.8,0.7,1.4-0.1,2.2c-4.6,4.8-9.2,9.6-13.8,14.4c-4,4.2-8,8.4-12,12.6c-4.1,4.3-8.1,8.6-12.2,12.9
		c-5.3,5.6-10.6,11.2-15.9,16.8c-5.4,5.7-10.9,11.5-16.3,17.2c-3.8,4.1-7.7,8.1-11.5,12.2c-5.5,5.8-10.9,11.5-16.4,17.3
		c-5.3,5.6-10.5,11.1-15.8,16.7c-0.4,0.4-0.8,0.9-1.2,1.4c-0.6,0.8-1.3,0.8-2,0.1c-2.7-2.8-5.3-5.5-8-8.3c-2.2-2.2-4.3-4.5-6.4-6.8
		c-2.9-3-5.7-5.9-8.6-8.9c-5.9-6.1-11.7-12.1-17.5-18.2c-4.5-4.6-8.9-9.3-13.3-14c-6.3-6.6-12.7-13.2-19.1-19.8
		c-3.3-3.4-6.6-6.8-9.9-10.3c-5.7-6-11.5-11.9-17.2-17.9c-3.5-3.7-7-7.3-10.5-11c-2.1-2.2-4.2-4.4-6.4-6.5c-0.8-0.8-0.8-1.4,0-2.2
		c4.2-4.2,8.4-8.5,12.5-12.7c7.1-7.3,14.2-14.7,21.4-22c4.2-4.4,8.4-8.7,12.7-13.1c5-5.2,10-10.3,15-15.5c4.3-4.4,8.5-8.8,12.8-13.2
		c7.1-7.3,14.3-14.7,21.4-22c4.3-4.4,8.5-8.8,12.7-13.2c2.9-3.1,5.9-6.1,8.8-9.2C150.5,29.8,150.9,29.5,151.4,29z M200.6,140.9
		c0-1.4,0.1-2.8,0-4.2c-0.6-5.3-1.6-10.6-3.6-15.6c-0.5-1.3-0.9-2.8-2.4-3.4c-3.5-1.2-6.9-2.6-10.5-3.6c-6.2-1.7-12.5-3.3-18.8-4.8
		c-3.2-0.7-6.4-1.2-9.7-1.4c-4.3-0.3-8.6-0.3-12.9-0.1c-3,0.1-6.1,0.5-9,1.1c-4.5,0.9-9,2.1-13.5,3.3c-3.7,1-7.2,2.3-10.8,3.5
		c-0.5,0.2-1,0.6-1.2,1c-1.1,2.5-2.4,5.1-3.2,7.7c-2.1,6.8-2.9,13.8-2.3,20.9c0.5,6.6,2.2,12.8,5,18.7c2.4,5.1,5.7,9.7,9.7,13.8
		c5.4,5.6,11.7,9.7,19.1,12.2c6.8,2.3,13.8,3,20.9,2.2c4.9-0.6,9.5-1.9,14-4c6.1-2.8,11.4-6.8,16-11.8c5.6-6.2,9.4-13.3,11.6-21.3
		C200.1,150.5,200.8,145.7,200.6,140.9z M101.3,186.4c0.1-0.1,0.2-0.3,0.3-0.4c-0.4-0.5-0.8-1-1.2-1.5c-3-3.5-5.6-7.2-7.8-11.3
		c-2.6-4.8-4.6-9.8-5.9-15.1c-1.2-4.9-1.9-9.8-2-14.8c-0.2-5.8,0.6-11.5,2-17.1c0.1-0.3,0-0.6,0-0.9c-0.3,0-0.6,0-0.9,0.1
		c-4.8,2.4-9.7,4.7-14.5,7.2c-3.5,1.8-6.9,3.7-10.3,5.6c-3.9,2.2-7.8,4.4-11.7,6.6c-3.8,2.3-7.6,4.6-11.3,6.9c-1.1,0.7-1.2,1.3,0,2
		c3.8,2.3,7.6,4.7,11.5,7c3,1.8,6.1,3.6,9.2,5.3c3.6,2,7.2,3.9,10.9,5.7c4.5,2.3,9,4.6,13.6,6.8c4.5,2.1,9.2,4.1,13.8,6.1
		C98.2,185.3,99.8,185.8,101.3,186.4z M263.4,152.1c-0.7-0.5-1.2-0.9-1.7-1.2c-3.5-2.1-7-4.2-10.5-6.2c-5.2-2.9-10.4-5.7-15.7-8.5
		c-3.2-1.7-6.5-3.4-9.8-5c-2.5-1.2-4.9-2.4-7.4-3.6c-0.3-0.1-0.8-0.2-1.1,0c-0.2,0.1-0.2,0.6-0.2,1c0.2,1.3,0.4,2.7,0.7,4
		c1,5.3,1,10.6,0.4,15.9c-0.6,5.8-1.9,11.5-4,16.9c-2.2,5.6-5,10.9-8.7,15.7c-0.2,0.2-0.2,0.6-0.3,1c0.4,0,0.8,0.1,1.1,0
		c1.1-0.5,2.2-1,3.3-1.5c3.6-1.6,7.3-3.2,10.9-4.9c4.1-1.9,8.1-4,12.1-6c4.1-2.1,8.2-4.2,12.3-6.5c4.6-2.5,9.2-5.2,13.7-7.9
		C260,154.3,261.6,153.3,263.4,152.1z"/>
	<path d="M200.6,140.9c0.2,4.9-0.5,9.7-1.9,14.3c-2.2,7.9-6,15.1-11.6,21.3c-4.5,5-9.8,9-16,11.8c-4.4,2.1-9.1,3.4-14,4
		c-7.2,0.9-14.1,0.2-20.9-2.2c-7.3-2.5-13.6-6.7-19.1-12.2c-4-4.1-7.2-8.6-9.7-13.8c-2.8-5.9-4.5-12.1-5-18.7
		c-0.6-7.2,0.1-14.1,2.3-20.9c0.8-2.7,2.1-5.2,3.2-7.7c0.2-0.4,0.7-0.9,1.2-1c3.6-1.2,7.2-2.5,10.8-3.5c4.5-1.2,8.9-2.4,13.5-3.3
		c3-0.6,6-1,9-1.1c4.3-0.2,8.6-0.1,12.9,0.1c3.3,0.2,6.5,0.7,9.7,1.4c6.3,1.5,12.6,3,18.8,4.8c3.6,1,7,2.4,10.5,3.6
		c1.6,0.6,1.9,2.1,2.4,3.4c2,5,3,10.3,3.6,15.6C200.8,138.1,200.6,139.5,200.6,140.9z M174.5,142.6c0-6.1-2-11.7-6.2-16.4
		c-3.1-3.5-6.9-5.8-11.5-6.8c-3.2-0.7-6.3-0.7-9.5,0c-4.3,1-8,3-11,6.2c-3.7,3.9-5.9,8.6-6.5,14.1c-0.6,5,0.1,9.8,2.3,14.2
		c3.1,6.2,7.8,10.5,14.7,12.2c8,2,15-0.1,20.8-5.9C172.3,155.5,174.6,149.6,174.5,142.6z"/>
	<path d="M101.3,186.4c-1.5-0.6-3.1-1.1-4.5-1.7c-4.6-2-9.2-4-13.8-6.1c-4.6-2.2-9.1-4.5-13.6-6.8c-3.7-1.9-7.3-3.8-10.9-5.7
		c-3.1-1.7-6.2-3.5-9.2-5.3c-3.8-2.3-7.6-4.6-11.5-7c-1.1-0.7-1.1-1.3,0-2c3.8-2.3,7.5-4.7,11.3-6.9c3.8-2.3,7.8-4.5,11.7-6.6
		c3.4-1.9,6.8-3.8,10.3-5.6c4.8-2.4,9.7-4.8,14.5-7.2c0.2-0.1,0.6-0.1,0.9-0.1c0,0.3,0.1,0.6,0,0.9c-1.3,5.6-2.1,11.3-2,17.1
		c0.1,5,0.8,9.9,2,14.8c1.4,5.3,3.4,10.3,5.9,15.1c2.2,4.1,4.8,7.8,7.8,11.3c0.4,0.5,0.8,1,1.2,1.5
		C101.4,186.1,101.3,186.2,101.3,186.4z"/>
	<path d="M263.4,152.1c-1.8,1.1-3.4,2.1-5,3.1c-4.6,2.6-9.1,5.3-13.7,7.9c-4.1,2.2-8.2,4.4-12.3,6.5c-4,2.1-8,4.1-12.1,6
		c-3.6,1.7-7.3,3.3-10.9,4.9c-1.1,0.5-2.2,1-3.3,1.5c-0.3,0.1-0.7,0-1.1,0c0.1-0.3,0.1-0.7,0.3-1c3.7-4.8,6.5-10,8.7-15.7
		c2.1-5.5,3.4-11.1,4-16.9c0.5-5.3,0.5-10.6-0.4-15.9c-0.2-1.3-0.5-2.7-0.7-4c0-0.3,0-0.9,0.2-1c0.3-0.1,0.8-0.1,1.1,0
		c2.5,1.2,5,2.3,7.4,3.6c3.3,1.6,6.6,3.3,9.8,5c5.2,2.8,10.5,5.6,15.7,8.5c3.6,2,7,4.1,10.5,6.2
		C262.2,151.2,262.7,151.6,263.4,152.1z"/>
	<path class="st1" d="M174.5,142.6c0,7-2.3,12.9-7,17.6c-5.7,5.7-12.7,7.9-20.8,5.9c-6.9-1.7-11.6-6-14.7-12.2
		c-2.2-4.4-2.9-9.2-2.3-14.2c0.6-5.5,2.8-10.1,6.5-14.1c3-3.2,6.7-5.2,11-6.2c3.2-0.7,6.3-0.7,9.5,0c4.6,1,8.4,3.3,11.5,6.8
		C172.5,131,174.6,136.6,174.5,142.6z"/>
</g>
</svg>
