<?xml version="1.0" standalone="no"?>
<!DOCTYPE svg PUBLIC "-//W3C//DTD SVG 20010904//EN"
 "http://www.w3.org/TR/2001/REC-SVG-20010904/DTD/svg10.dtd">
<svg version="1.0" xmlns="http://www.w3.org/2000/svg"
 width="1254.000000pt" height="1254.000000pt" viewBox="0 0 1254.000000 1254.000000"
 preserveAspectRatio="xMidYMid meet">
<metadata>
Created by potrace 1.16, written by Peter Selinger 2001-2019
</metadata>
<g transform="translate(0.000000,1254.000000) scale(0.100000,-0.100000)"
fill="#000000" stroke="none">
<path d="M0 6270 l0 -6270 6270 0 6270 0 0 6270 0 6270 -6270 0 -6270 0 0
-6270z m6370 5013 c18 -21 65 -72 105 -113 39 -41 384 -408 765 -815 736 -785
961 -1024 1050 -1115 70 -71 481 -508 1605 -1705 253 -269 483 -513 510 -541
28 -28 97 -102 155 -164 58 -62 128 -136 155 -164 161 -163 435 -462 435 -474
0 -14 -61 -80 -309 -338 -80 -83 -214 -222 -297 -310 -83 -87 -233 -247 -335
-354 -102 -107 -261 -276 -354 -375 -255 -270 -1489 -1573 -1772 -1870 -136
-144 -432 -456 -658 -695 -1010 -1071 -1129 -1195 -1142 -1198 -19 -5 -13 -11
-1189 1218 -576 602 -1136 1185 -1244 1295 -108 110 -250 256 -315 325 -66 69
-169 177 -230 240 -61 63 -422 439 -801 835 -652 681 -1059 1104 -1131 1177
-18 18 -33 39 -33 46 0 7 204 223 453 480 248 257 702 726 1007 1042 1231
1274 2322 2401 2430 2511 126 126 578 592 875 901 128 133 197 197 211 197 13
1 35 -14 54 -36z"/>
<path d="M5955 8050 c-257 -19 -552 -74 -905 -172 -193 -53 -481 -150 -518
-174 -28 -18 -71 -104 -124 -247 -72 -197 -109 -353 -127 -547 -21 -219 -11
-488 25 -665 33 -165 79 -324 119 -412 8 -17 15 -34 15 -37 0 -7 84 -182 99
-206 5 -8 26 -44 47 -80 110 -191 354 -462 540 -600 362 -269 747 -399 1184
-399 218 -1 384 25 605 92 87 26 136 47 260 108 147 72 230 124 353 220 447
347 740 872 818 1462 19 144 15 479 -6 597 -28 155 -54 263 -90 375 -51 158
-84 231 -112 247 -33 18 -216 88 -262 99 -21 5 -47 14 -58 20 -11 6 -41 16
-66 24 -26 7 -112 33 -192 58 -241 74 -484 135 -705 175 -339 63 -620 82 -900
62z m566 -489 c273 -62 485 -223 623 -474 51 -90 74 -152 103 -277 22 -95 24
-120 20 -260 -5 -155 -16 -214 -62 -340 -83 -226 -259 -424 -470 -529 -137
-68 -239 -91 -400 -91 -122 0 -262 22 -313 50 -10 5 -42 20 -74 34 -87 40
-166 96 -252 182 -188 187 -296 450 -296 722 0 90 17 228 34 277 8 22 17 53
21 69 3 16 24 65 45 110 128 266 348 451 621 521 123 31 279 33 400 6z"/>
<path d="M3530 7293 c-218 -103 -882 -444 -960 -493 -8 -5 -35 -20 -60 -33
-47 -25 -341 -194 -423 -243 -26 -16 -129 -78 -227 -139 -99 -60 -211 -128
-248 -151 -86 -52 -90 -71 -25 -110 26 -15 68 -42 93 -59 39 -27 189 -117 323
-195 24 -14 72 -42 108 -64 35 -21 101 -59 147 -85 45 -25 99 -56 120 -68 20
-12 64 -36 97 -53 33 -18 65 -36 70 -40 34 -27 658 -346 870 -445 156 -73 216
-101 265 -123 25 -11 75 -34 113 -51 37 -17 70 -31 73 -31 3 0 49 -19 102 -41
183 -78 207 -88 235 -94 41 -11 34 9 -31 83 -65 74 -142 178 -217 292 -59 91
-192 349 -229 445 -15 39 -33 86 -41 105 -53 139 -120 417 -136 565 -36 341
-36 340 0 705 7 71 31 203 52 281 20 78 13 82 -71 42z"/>
<path d="M9044 7215 c-3 -8 -1 -36 5 -62 49 -217 63 -661 28 -898 -28 -191
-78 -405 -113 -482 -8 -17 -14 -37 -14 -43 0 -22 -69 -190 -125 -305 -64 -133
-168 -307 -236 -394 -50 -66 -60 -91 -36 -91 12 0 122 47 297 126 30 14 69 31
85 39 321 145 760 363 1050 520 39 21 95 51 125 68 74 39 315 175 365 204 98
59 202 119 225 131 14 7 68 39 120 72 52 33 105 64 117 69 11 5 24 14 27 20 7
11 -35 45 -117 92 -32 19 -71 42 -85 51 -15 9 -61 36 -102 60 -41 24 -83 47
-92 53 -68 40 -569 318 -633 351 -44 23 -240 122 -435 219 -195 97 -371 185
-391 196 -44 23 -58 24 -65 4z"/>
</g>
</svg>
